<?xml version="1.0" encoding="utf-8"?>
<!-- Generator: Adobe Illustrator 23.0.1, SVG Export Plug-In . SVG Version: 6.00 Build 0)  -->
<svg version="1.1" id="Warstwa_1" xmlns="http://www.w3.org/2000/svg" xmlns:xlink="http://www.w3.org/1999/xlink" x="0px" y="0px"
	 viewBox="0 0 177 264" style="enable-background:new 0 0 177 264;" xml:space="preserve">
<style type="text/css">
	.st0{fill:#C4C4C4;}
	.st1{fill:none;stroke:#E2E2E2;stroke-width:1.6862;stroke-linecap:round;stroke-linejoin:round;}
</style>
<path class="st0" d="M5,0h167c2.8,0,5,2.2,5,5v254c0,2.8-2.2,5-5,5H5c-2.8,0-5-2.2-5-5V5C0,2.2,2.2,0,5,0z"/>
<path class="st1" d="M104.8,140.6l11.2,4.6c2.1,0.9,4.5-0.7,4.5-3v-20.3c0-2.3-2.3-3.9-4.5-3l-11.2,4.6"/>
<path class="st1" d="M73.6,154.1h19.9c6.9,0,11.3-4.5,11.3-10.9v-22.3c0-6.4-4.3-10.9-11.3-10.9H73.6c-7,0-11.3,4.5-11.3,10.9v22.3
	C62.3,149.6,66.6,154.1,73.6,154.1z"/>
</svg>
