<?xml version="1.0" encoding="utf-8"?>
<!-- Generator: Adobe Illustrator 23.0.1, SVG Export Plug-In . SVG Version: 6.00 Build 0)  -->
<svg version="1.1" id="Warstwa_1" xmlns="http://www.w3.org/2000/svg" xmlns:xlink="http://www.w3.org/1999/xlink" x="0px" y="0px"
	 viewBox="0 0 500 750" style="enable-background:new 0 0 500 750;" xml:space="preserve">
<style type="text/css">
	.st0{fill:#C4C4C4;}
	.st1{fill:none;stroke:#E2E2E2;stroke-width:8;stroke-linecap:round;stroke-linejoin:round;}
</style>
<path class="st0" d="M14.2,0h471.6c7.7,0,14.2,6.3,14.2,14.2v721.6c0,8-6.2,14.2-14.2,14.2H14.2C6.5,750,0,743.7,0,735.8V14.2
	C0,6.3,6.2,0,14.2,0z"/>
<ellipse class="st1" cx="247.3" cy="331" rx="40.6" ry="46.3"/>
<path class="st1" d="M180.5,441.8c0-3.4,0.7-6.8,2-9.7c4-9.1,15.5-14.2,24.9-16.2c6.7-1.7,13.7-2.8,20.7-3.4c13-1.4,25.7-1.4,38.6,0
	c7,0.6,14,1.7,20.7,3.4c9.5,2.3,20.9,6.5,24.9,16.2c2.5,6.3,2.5,13.4,0,19.6c-4,9.7-15.5,14.2-24.9,16.2c-6.7,1.7-13.7,2.8-20.7,3.4
	c-10.5,1.1-20.9,1.1-31.4,0.6c-2.5,0-4.7,0-7.2-0.6c-7-0.6-13.7-1.7-20.7-3.4c-9.5-2-20.9-6.5-24.9-16.2
	C181.2,448.6,180.5,445.2,180.5,441.8z"/>
</svg>
