<?xml version="1.0" encoding="utf-8"?>
<!-- Generator: Adobe Illustrator 23.0.1, SVG Export Plug-In . SVG Version: 6.00 Build 0)  -->
<svg version="1.1" xmlns="http://www.w3.org/2000/svg" xmlns:xlink="http://www.w3.org/1999/xlink" x="0px" y="0px"
	 viewBox="0 0 100 91" style="enable-background:new 0 0 100 91;" xml:space="preserve">
<style type="text/css">
	.st0{fill:#D6E4FF;}
	.st1{fill:#230B34;}
</style>
<g id="Warstwa_1">
	<path class="st0" d="M13.6,90.8c-0.1,0-0.1,0-0.2,0c-1.6-0.1-3.1-0.4-4.6-1C1.6,86.9-1.9,78.6,1,71.4L37.6,7.3
		c1.3-2.3,3.2-4.2,5.5-5.5C50-2,58.6,0.5,62.4,7.3l36.4,63.6c0.8,1.9,1.2,3.5,1.2,5c0.2,3.8-1.1,7.4-3.6,10.2
		c-2.5,2.8-6,4.5-9.8,4.6l-72.6,0H13.6z"/>
</g>
<g id="Warstwa_2">
	<path class="st1" d="M45.3,43c0-2.5,0-4.9,0-7.4c0-2.7,2.1-4.8,4.7-4.8c2.6,0,4.6,2.1,4.6,4.8c0,4.9,0,9.8,0,14.8
		c0,2.6-2.1,4.7-4.7,4.7c-2.6,0-4.6-2-4.6-4.7c0-0.1,0-0.1,0-0.2C45.3,47.7,45.3,45.3,45.3,43z"/>
	<path class="st1" d="M45.3,68.3c0-2.7,2-4.7,4.7-4.7c2.6,0,4.7,2.1,4.7,4.7c0,2.6-2.1,4.7-4.7,4.7C47.3,73,45.3,70.9,45.3,68.3z"/>
</g>
</svg>
