<?xml version="1.0" encoding="utf-8"?>
<!-- Generator: Adobe Illustrator 23.0.1, SVG Export Plug-In . SVG Version: 6.00 Build 0)  -->
<svg version="1.1" xmlns="http://www.w3.org/2000/svg" xmlns:xlink="http://www.w3.org/1999/xlink" x="0px" y="0px"
	 viewBox="0 0 275 251.9" style="enable-background:new 0 0 275 251.9;" xml:space="preserve">
<style type="text/css">
	.st0{fill:#FFFFFF;stroke:#000000;stroke-width:2.3857;}
	.st1{fill:#D6E4FF;stroke:#000000;stroke-width:2.3857;}
	.st2{fill:none;stroke:#000000;stroke-width:2.3857;stroke-dasharray:7.16,7.16;}
</style>
<g id="Warstwa_1">
	<path class="st0" d="M233.8,87.9H33.1c-1.4-3.4-3.3-11.7,0-17.8c3.3-6,13.7-8.9,18.4-9.6c-3-2-8.5-13.5,0-23.3
		c7.1-8.2,22.1-5.6,28.7-3.3c-1.1-3.9,0.9-13.4,9.1-17.2c10.2-4.8,16.6,2.4,20.9,5.6C112,14.4,122-0.4,147.1,4
		c20,3.5,26.4,21.8,23.9,30c1.8-5,24.1-11.6,43.7,0C238.2,47.9,240.2,75,233.8,87.9z"/>
	<path class="st0" d="M261.8,108.2h-89.1c-5.5-3.8-14.8-14-8.5-24.2c6.3-10.3,25.9-10.4,34.9-9.3c6.4-6.2,14.7-17.4,30.6-15.7
		c16,1.7,24.2,17.1,22.1,24.9c3.3-1.2,11.5-1.6,17.8,6.4C275.9,98.3,267,105.6,261.8,108.2z"/>
</g>
<g id="Warstwa_2">
	<path class="st0" d="M87.6,172.5L2.8,127.1l85.8,83.4L87.6,172.5z"/>
	<path class="st0" d="M111.9,151.3L2.8,127.1l84.8,45.4L111.9,151.3z"/>
	<path class="st1" d="M88.1,210.1l-25.5-16.4l10.6-10.1c1-0.9,2.5-0.6,3.1,0.6L88.1,210.1z"/>
	<path class="st0" d="M43.1,211.9L2.3,126.7l72.4,55.6L43.1,211.9z"/>
	<path class="st2" d="M91,213.7c1.4,9,10.4,27,35.9,26.4c25.5-0.5,32.7-11.1,33.2-16.3c1.4-5,1.1-16-10.8-20.3
		c-14.9-5.4-18.2,10.7-16.3,15.6c1.4,3.4,3.4,13.5,31.1,25.7c22.2,9.8,44.5-2.3,52.8-9.5"/>
</g>
</svg>
