<?xml version="1.0" encoding="utf-8"?>
<!-- Generator: Adobe Illustrator 23.0.1, SVG Export Plug-In . SVG Version: 6.00 Build 0)  -->
<svg version="1.1" id="Warstwa_1" xmlns="http://www.w3.org/2000/svg" xmlns:xlink="http://www.w3.org/1999/xlink" x="0px" y="0px"
	 viewBox="0 0 200.5 264" style="enable-background:new 0 0 200.5 264;" xml:space="preserve">
<style type="text/css">
	.st0{fill:#C4C4C4;}
	.st1{fill:none;stroke:#FFFFFF;stroke-width:1.5;stroke-linecap:round;stroke-linejoin:round;}
</style>
<path class="st0" d="M5.7,0h189.2c3.1,0,5.7,2.2,5.7,5v254c0,2.8-2.5,5-5.7,5H5.7c-3.1,0-5.7-2.2-5.7-5V5C0,2.2,2.5,0,5.7,0z"/>
<ellipse class="st1" cx="99.2" cy="116.5" rx="16.3" ry="16.3"/>
<path class="st1" d="M72.4,155.5c0-1.2,0.3-2.4,0.8-3.4c1.6-3.2,6.2-5,10-5.7c2.7-0.6,5.5-1,8.3-1.2c5.2-0.5,10.3-0.5,15.5,0
	c2.8,0.2,5.6,0.6,8.3,1.2c3.8,0.8,8.4,2.3,10,5.7c1,2.2,1,4.7,0,6.9c-1.6,3.4-6.2,5-10,5.7c-2.7,0.6-5.5,1-8.3,1.2
	c-4.2,0.4-8.4,0.4-12.6,0.2c-1,0-1.9,0-2.9-0.2c-2.8-0.2-5.5-0.6-8.3-1.2c-3.8-0.7-8.4-2.3-10-5.7C72.7,157.9,72.4,156.7,72.4,155.5
	z"/>
</svg>
